<?xml version="1.0" encoding="utf-8"?>
<!-- Generator: Adobe Illustrator 28.6.0, SVG Export Plug-In . SVG Version: 9.03 Build 54939)  -->
<svg version="1.0" id="Layer_1" xmlns="http://www.w3.org/2000/svg" xmlns:xlink="http://www.w3.org/1999/xlink" x="0px" y="0px"
	 width="400px" height="400px" viewBox="0 0 400 400" style="enable-background:new 0 0 400 400;" xml:space="preserve">
<g>
	<g id="Layer_1_00000146479712333459789260000010052810418566185387_">
		<path style="fill:#E2B024;" d="M0,200c0,110.5,89.5,200,200,200s200-89.5,200-200S310.5,0,200,0S0,89.5,0,200z"/>
		<path style="fill:#FFFFFF;" d="M193.8,206.3l-83.5-54.9c-10.2-6.7-23.5,1.5-22.1,13.6l11.4,100.6c1.5,13.5,13,23.7,26.6,23.7
			h150.9c13.6,0,25-10.2,26.6-23.7L315.1,165c1.4-12.1-12-20.3-22.1-13.6l-83.5,54.9c-4.8,3.1-11,3.1-15.8,0l0,0H193.8z"/>
		<path style="fill:#FFFFFF;" d="M186.5,105.5l-61.6,99.4c-7.4,11.9,1.2,27.3,15.2,27.3h123.2c14,0,22.6-15.4,15.2-27.3l-61.6-99.4
			C209.9,94.2,193.5,94.2,186.5,105.5L186.5,105.5z"/>
		<path style="fill:#E2B024;" d="M164.3,238h74.8c8.4,0,12.7,4.2,12.7,12.7l0,0c0,8.5-4.2,12.7-12.7,12.7h-74.8
			c-8.4,0-12.7-4.2-12.7-12.7l0,0C151.6,242.2,155.8,238,164.3,238z"/>
	</g>
</g>
</svg>
